<mxfile host="app.diagrams.net" modified="2023-06-16T00:22:42.384Z" agent="Mozilla/5.0 (X11; Linux x86_64) AppleWebKit/537.36 (KHTML, like Gecko) Chrome/109.0.0.0 Safari/537.36" etag="jOFy-ISFTxd0_N8SHJnA" version="21.4.0" type="device">
  <diagram id="0XTVR4lOOxU4gK7awckw" name="PÃ¡gina-1">
    <mxGraphModel dx="1529" dy="861" grid="1" gridSize="10" guides="1" tooltips="1" connect="1" arrows="1" fold="1" page="0" pageScale="1" pageWidth="827" pageHeight="1169" background="none" math="0" shadow="0">
      <root>
        <mxCell id="0" />
        <mxCell id="1" parent="0" />
        <mxCell id="node0" value="&lt;p style=&quot;margin:0px;margin-top:4px;text-align:center;&quot;&gt;&lt;b&gt;visualizacao.EntradaSaida&lt;/b&gt;&lt;/p&gt;&lt;hr size=&quot;1&quot;/&gt;&lt;p style=&quot;margin:0 0 0 4px;line-height:1.6;&quot;&gt;+ mostraResultado(double, int): void&lt;br/&gt;+ solicitarNumero(String): double&lt;br/&gt;+ solicitarOperacao(): int&lt;/p&gt;" style="verticalAlign=top;align=left;overflow=fill;fontSize=14;fontFamily=Helvetica;html=1;rounded=0;shadow=0;comic=0;labelBackgroundColor=none;strokeWidth=1;" parent="1" vertex="1">
          <mxGeometry x="209" y="211" width="260" height="110" as="geometry" />
        </mxCell>
        <mxCell id="node2" value="&lt;p style=&quot;margin:0px;margin-top:4px;text-align:center;&quot;&gt;&lt;b&gt;modelo.Operacoes&lt;/b&gt;&lt;/p&gt;&lt;hr size=&quot;1&quot;/&gt;&lt;p style=&quot;margin:0 0 0 4px;line-height:1.6;&quot;&gt;+ calculaSoma(double, double): double&lt;br/&gt;+ calculaMultiplicacao(double, double): double&lt;br/&gt;+ calculaDivisao(double, double): double&lt;br/&gt;+ calculaSubtracao(double, double): double&lt;/p&gt;" style="verticalAlign=top;align=left;overflow=fill;fontSize=14;fontFamily=Helvetica;html=1;rounded=0;shadow=0;comic=0;labelBackgroundColor=none;strokeWidth=1;" parent="1" vertex="1">
          <mxGeometry x="609" y="190" width="322" height="133" as="geometry" />
        </mxCell>
        <mxCell id="node1" value="&lt;p style=&quot;margin:0px;margin-top:4px;text-align:center;&quot;&gt;&lt;b&gt;controle.Principal&lt;/b&gt;&lt;/p&gt;&lt;hr size=&quot;1&quot;/&gt;&lt;p style=&quot;margin:0 0 0 4px;line-height:1.6;&quot;&gt;- calculaSoma(double, double): double&lt;br/&gt;- calculaDivisao(double, double): double&lt;br/&gt;- calculaSubtracao(double, double): double&lt;br/&gt;+ main(String[]): void&lt;br/&gt;- calculaMultiplicacao(double, double): double&lt;/p&gt;" style="verticalAlign=top;align=left;overflow=fill;fontSize=14;fontFamily=Helvetica;html=1;rounded=0;shadow=0;comic=0;labelBackgroundColor=none;strokeWidth=1;" parent="1" vertex="1">
          <mxGeometry x="209" y="13" width="322" height="148" as="geometry" />
        </mxCell>
        <mxCell id="K9S6buzB6yRwehzC4UXg-1" value="Use" style="endArrow=classic;html=1;rounded=0;exitX=0.407;exitY=0.993;exitDx=0;exitDy=0;exitPerimeter=0;dashed=1;" parent="1" source="node1" edge="1">
          <mxGeometry width="50" height="50" relative="1" as="geometry">
            <mxPoint x="550" y="360" as="sourcePoint" />
            <mxPoint x="340" y="200" as="targetPoint" />
          </mxGeometry>
        </mxCell>
        <mxCell id="K9S6buzB6yRwehzC4UXg-4" value="use" style="endArrow=classic;html=1;rounded=0;" parent="1" edge="1">
          <mxGeometry width="50" height="50" relative="1" as="geometry">
            <mxPoint x="540" y="80" as="sourcePoint" />
            <mxPoint x="720" y="180" as="targetPoint" />
            <Array as="points">
              <mxPoint x="720" y="80" />
            </Array>
          </mxGeometry>
        </mxCell>
      </root>
    </mxGraphModel>
  </diagram>
</mxfile>
